<svg xmlns="http://www.w3.org/2000/svg" width="77.351" height="64.976" viewBox="0 0 77.351 64.976">
  <g id="Group_7879" data-name="Group 7879" transform="translate(-102.256 -2831.688)">
    <path id="Path_2538" data-name="Path 2538" d="M340.535,289.619h10.829a3.868,3.868,0,1,0,0-7.735H340.535a3.868,3.868,0,0,0,0,7.735Z" transform="translate(-175.624 2560.633)" fill="#f14d74"/>
    <path id="Path_2539" data-name="Path 2539" d="M322.646,281.884H302.535a3.868,3.868,0,1,0,0,7.735h20.111a3.868,3.868,0,1,0,0-7.735Z" transform="translate(-196.411 2560.633)" fill="#f14d74"/>
    <path id="Path_2540" data-name="Path 2540" d="M313.364,304.884H302.535a3.868,3.868,0,0,0,0,7.735h10.829a3.868,3.868,0,0,0,0-7.735Z" transform="translate(-196.411 2573.215)" fill="#f14d74"/>
    <path id="Path_2541" data-name="Path 2541" d="M354.646,304.884H334.535a3.868,3.868,0,1,0,0,7.735h20.111a3.868,3.868,0,0,0,0-7.735Z" transform="translate(-178.906 2573.215)" fill="#f14d74"/>
    <path id="Path_2542" data-name="Path 2542" d="M322.364,297.884a14.7,14.7,0,1,0,14.7,14.7A14.7,14.7,0,0,0,322.364,297.884Zm0,21.658a6.962,6.962,0,1,1,6.962-6.962A6.969,6.969,0,0,1,322.364,319.542Z" transform="translate(-191.487 2569.386)" fill="#8a2eff"/>
    <path id="Path_2543" data-name="Path 2543" d="M335.364,274.884a14.7,14.7,0,1,0,14.7,14.7A14.7,14.7,0,0,0,335.364,274.884Zm0,21.658a6.962,6.962,0,1,1,6.962-6.962A6.969,6.969,0,0,1,335.364,296.542Z" transform="translate(-184.376 2556.804)" fill="#8a2eff"/>
  </g>
</svg>
