<svg xmlns="http://www.w3.org/2000/svg" width="60.773" height="58.216" viewBox="0 0 60.773 58.216">
  <g id="Group_7544" data-name="Group 7544" transform="translate(-70.905 -1798.018)">
    <g id="Group_7543" data-name="Group 7543" transform="translate(73.443 1800.518)">
      <path id="Path_2712" data-name="Path 2712" d="M-627.723,294.678l-7.794,15.1-16.559,2.435,11.69,12.663-2.435,17.047,14.125-5.845" transform="translate(655.483 -291.127)" fill="none" stroke="#cee1f2" stroke-linecap="round" stroke-miterlimit="10" stroke-width="5"/>
      <path id="Path_2710" data-name="Path 2710" d="M-847.347,163.178l-14.2,7.463a1.946,1.946,0,0,1-2.824-2.052l2.711-15.807a1.947,1.947,0,0,0-.56-1.723L-873.7,139.864a1.946,1.946,0,0,1,1.079-3.32l15.871-2.306a1.946,1.946,0,0,0,1.465-1.065l7.1-14.382a1.947,1.947,0,0,1,3.491,0l7.1,14.382a1.946,1.946,0,0,0,1.465,1.065l15.871,2.306a1.946,1.946,0,0,1,1.079,3.32l-11.485,11.195a1.946,1.946,0,0,0-.56,1.723l2.711,15.807a1.946,1.946,0,0,1-2.824,2.052l-14.2-7.463A1.946,1.946,0,0,0-847.347,163.178Z" transform="translate(874.29 -117.706)" fill="none" stroke="#8a2eff" stroke-miterlimit="10" stroke-width="5"/>
      <path id="Path_2711" data-name="Path 2711" d="M-629.408,293.985l-4.383,4.383,1.46,7.793" transform="translate(668.857 -266.568)" fill="none" stroke="#f14d74" stroke-linecap="round" stroke-miterlimit="10" stroke-width="5"/>
    </g>
  </g>
</svg>
