<svg xmlns="http://www.w3.org/2000/svg" width="68.63" height="82.874" viewBox="0 0 68.63 82.874">
  <g id="Group_7876" data-name="Group 7876" transform="translate(-971.687 -2823)">
    <path id="Path_2586" data-name="Path 2586" d="M-466.555,137.363V93.323a16.16,16.16,0,0,1,16.141-16.18h-9.828a16.186,16.186,0,0,0-16.186,16.186v44.027a16.186,16.186,0,0,0,16.186,16.186h9.828a16.16,16.16,0,0,1-16.141-16.18Z" transform="translate(1451.191 2749.094)" fill="#c2d9ef"/>
    <ellipse id="Ellipse_342" data-name="Ellipse 342" cx="4.138" cy="4.138" rx="4.138" ry="4.138" transform="translate(990.829 2853.403)" fill="#f14d74"/>
    <path id="Path_2587" data-name="Path 2587" d="M-446.219,140.017h-29.79a19.442,19.442,0,0,1-19.42-19.42V76.563a19.442,19.442,0,0,1,19.42-19.42h29.79a19.442,19.442,0,0,1,19.42,19.42V120.6A19.442,19.442,0,0,1-446.219,140.017Zm-29.79-76.4a12.96,12.96,0,0,0-12.946,12.946V120.6a12.961,12.961,0,0,0,12.946,12.946h29.79A12.961,12.961,0,0,0-433.273,120.6V76.563a12.961,12.961,0,0,0-12.946-12.946Z" transform="translate(1467.116 2765.857)" fill="#8a2eff"/>
    <path id="Path_2588" data-name="Path 2588" d="M-259.6,157.214h-5.5a11.343,11.343,0,0,1-11.331-11.33v-5.5a3.237,3.237,0,0,1,3.237-3.237,3.237,3.237,0,0,1,3.237,3.237v5.5a4.861,4.861,0,0,0,4.856,4.856h5.5a3.237,3.237,0,0,1,3.237,3.237A3.237,3.237,0,0,1-259.6,157.214Z" transform="translate(1283.564 2698.806)" fill="#8a2eff"/>
    <path id="Path_2589" data-name="Path 2589" d="M-354.854,418.617h-22.337a3.237,3.237,0,0,1-3.237-3.237,3.237,3.237,0,0,1,3.237-3.237h22.337a3.237,3.237,0,0,1,3.237,3.237A3.237,3.237,0,0,1-354.854,418.617Z" transform="translate(1370.73 2468.319)" fill="#f14d74"/>
    <path id="Path_2590" data-name="Path 2590" d="M-354.854,341.617h-22.337a3.237,3.237,0,0,1-3.237-3.237,3.237,3.237,0,0,1,3.237-3.237h22.337a3.237,3.237,0,0,1,3.237,3.237A3.237,3.237,0,0,1-354.854,341.617Z" transform="translate(1370.73 2532.855)" fill="#f14d74"/>
  </g>
</svg>
